<svg 
      xmlns="http://www.w3.org/2000/svg"
      xmlns:xlink="http://www.w3.org/1999/xlink"
      viewBox="0 0 500 500" 
      version="1.2" 
      stroke-linecap="round" 
      stroke-linejoin="round" 
      width="500" 
      height="500"
    >
    <path
          d="M113.81100106112262,498.2179228508048L105.01383131984767,499.49081176087157L121.8510783855254,496.6338681432853L122.63300383060323,497.1999216609511L123.61024348818682,494.31376105697564L127.59370296260022,497.51090794610855ZM111.6115405973078,487.57672586334456L111.53771098747802,489.86962796208445L111.31890621527418,485.4244883985166ZM98.9812572977562,482.5915292453842L92.59228515842096,327.8876638446495L125.50028871361792,12.077356517285807L116.35679024864021,0L230.57922958033578,0.5116884834228586L344.76907732737527,2.50756868071403L381.71155064136747,227.67325014631842L387.0172360285587,236.37036597489305L388.7233780238039,250.4779617560962L401.01203123943105,272.78940977945103L397.3077832214303,283.31666752402907L407.4077148415772,290.0265607943893L392.5229333883035,303.5248057826652L391.8430276322615,320.2954607869865L385.4090863168276,334.26571604155333L386.7776247539423,348.5611077637918L394.0398031590603,364.66843057139795L388.3649679632599,400.8114913471436L397.72794243469525,420.47773627903734L169.2008830958257,420.6572465674258L167.03968034529953,436.3210820822692L187.20128587230374,456.0345285052317L182.65940436479195,470.0368707731036L186.92677305566758,479.6733138537861L179.25316060285695,487.94478429158016L178.27592182500575,484.914556764581L174.51260959130377,491.65358283519254L171.36007214359051,492.07804636886294L171.7023752212299,486.84056826815595L168.1102145263476,486.44407870964824L169.8633385207222,490.1553773018054L166.61952113203552,492.729088750365L176.7120700551186,492.2195302056002L164.32206838470756,497.3694989703763L131.57649032302834,500L158.6042777155708,494.82321283985357L158.188817142086,491.3138431113275L155.6960501822541,493.1818779073237L149.1104231213676,486.8870419114678L149.4815857530084,480.7335746468457L148.3895747150209,484.5463864839444L142.25699382692346,481.02678456628973L139.64005908686158,473.62072257250657L142.72950491334814,467.00176661015985L141.6690392461096,456.4648069548857L137.93056092034658,455.5560504089076L138.5500608719076,450.0195903898616L133.44170252025287,453.2737462128034L134.24040794195116,443.5885188338016L133.28733095805364,452.9705437710527L126.44531176619785,465.03955863438887L121.94839943478564,491.342026036275L122.55984545502815,487.4351762130209L116.93266349261194,490.0809281466368L118.47839369709982,485.79262625397405Z"
          data-id="USA.1"
          data-name="Alabama"
          fill="transparent"
          stroke="black"
          fill-opacity="1"
        />
		
    <text
            x="237.2158660888672"
            y="234.7751007080078"
            dominant-baseline="middle"
            text-anchor="middle"
            font-size="8px"
            font-family="sans-serif"
            fill="black"
            stroke="black"
            stroke-width="0.2px"
            stroke-linejoin="round"
          >
            <tspan x="237.2158660888672" ></tspan>
         </text>
  </svg>