<svg 
      xmlns="http://www.w3.org/2000/svg"
      xmlns:xlink="http://www.w3.org/1999/xlink"
      viewBox="0 0 500 500" 
      version="1.2" 
      stroke-linecap="round" 
      stroke-linejoin="round" 
      width="500" 
      height="500"
    >
    <path
          d="M57.55622986270646,461.87674710099736L57.67050788517554,398.1571121220627L23.441562093852554,398.91356132664123L13.255480563473611,387.21698026660897L18.844365282131548,172.5913416084195L0,36.19703533034408L224.4104830264605,33.725120006730776L448.8149603902766,36.45606672509575L457.41572211977655,61.250489468267006L426.32136765695213,98.93157346381167L492.70845035400635,98.13240746723068L500,110.16135459664065L469.00688610584257,130.82846128365782L479.10553355923,141.45420153554278L472.4007125613389,158.53917542879708L460.6193408802592,153.8918587806993L461.10099583367446,173.258428621853L455.72072646031665,162.84996822980156L447.07317908042023,170.28488834450673L456.70244301215644,174.48663571586894L447.42214936635537,187.92774212925679L457.4655748741552,204.34694109442853L433.56689968514183,218.57640938645136L432.99397652343396,240.6123111261295L415.4733948332432,236.38681606338287L406.37333752735503,293.27305241455906L370.56674220830246,314.23905069430657L383.08516883321863,322.72764013849655L367.7573443242436,328.1053020352406L375.0036433797468,340.542142695615L355.10853310851235,346.3965383153841L364.76310693109735,370.57270248157783L349.07250765506797,376.46821288440515L360.5793046681265,382.49586111712097L340.8069097198295,383.32302962326276L350.5504516740366,391.5317019592062L340.1151063717607,411.7450360756584L346.7907823422265,404.38927198255305L344.63790756556955,417.80283821089597L357.96625069760194,411.4040489697477L347.3245911319682,463.8029646696573L202.45361233521726,461.8468922678171Z"
          data-id="USA.4"
          data-name="Arkansas"
          fill="transparent"
          stroke="black"
          fill-opacity="1"
        />
		
    <text
            x="219.00411987304688"
            y="234.30221557617188"
            dominant-baseline="middle"
            text-anchor="middle"
            font-size="8px"
            font-family="sans-serif"
            fill="black"
            stroke="black"
            stroke-width="0.2px"
            stroke-linejoin="round"
          >
            <tspan x="219.00411987304688" ></tspan>
         </text>
  </svg>