<svg 
      xmlns="http://www.w3.org/2000/svg"
      xmlns:xlink="http://www.w3.org/1999/xlink"
      viewBox="0 0 500 500" 
      version="1.2" 
      stroke-linecap="round" 
      stroke-linejoin="round" 
      width="500" 
      height="500"
    >
    <path
          d="M353.1634555429773,500L172.96100936203584,496.47068472482897L170.78539479883693,460.54613805118606L193.25038553460035,437.07458700678035L170.7789891421162,459.949542764587L146.83654445702632,40.772012294708475L195.2167654355253,-1.8189894035458565e-12L253.7918479469663,13.796733244924326L210.43539688028613,76.25048653139493L224.34951591345452,95.36839464136938L208.383613819944,129.17537308961982L236.47873186215293,168.09543878571458L226.30094928202743,180.69201313195845L253.9605162484404,209.6014890039296L245.88575918399874,224.80651456545638L256.9090184903798,228.89840561623714L250.937286941622,277.1577338366078L315.29408330972365,373.2152077832143L342.1060327340674,375.4096086267855L349.6534327050176,442.84578145075284L344.9883487867628,412.1878518515641L320.8900471136476,408.3031031049122L332.1652426620094,427.7729108737658L316.2270984143033,421.8465600295167L325.86471258749225,428.9142756052661L318.75072847343836,432.0865943417157L339.7019665384214,439.1637882783616L286.92140919709345,448.21685609278575L315.9943791424994,451.796493221178L305.03303558754124,461.3420337857078L334.57144407655505,449.21117415667504L341.3352802742338,461.83894392940783L349.8071572725821,443.6408573246026Z"
          data-id="USA.8"
          data-name="Delaware"
          fill="transparent"
          stroke="black"
          fill-opacity="1"
        />
		
    <text
            x="250"
            y="367.93389892578125"
            dominant-baseline="middle"
            text-anchor="middle"
            font-size="8px"
            font-family="sans-serif"
            fill="black"
            stroke="black"
            stroke-width="0.2px"
            stroke-linejoin="round"
          >
            <tspan x="250" ></tspan>
         </text>
  </svg>