<svg 
      xmlns="http://www.w3.org/2000/svg"
      xmlns:xlink="http://www.w3.org/1999/xlink"
      viewBox="0 0 500 500" 
      version="1.2" 
      stroke-linecap="round" 
      stroke-linejoin="round" 
      width="500" 
      height="500"
    >
    <path
          d="M363.21563273260836,488.16971767097925L361.07965439673626,486.62356815372664L363.5842510809043,486.8411538347068L363.5260746163458,489.17359428238547ZM388.23200748034924,488.63127747036833L382.8988320556582,490.03525179409166L383.9043821486184,486.4827831365817L384.12354651952774,488.61142578007434L387.7024012257025,486.80433857212415ZM391.26871822373323,487.18586006338796L392.942795112177,484.97675389717983L393.9473420833092,487.4267332053289L389.0534991796185,489.1534684197893L390.00287839432167,485.82005635573523ZM413.79554180002197,478.42665627974134L415.3693150512454,478.82937172354355L415.80413352401865,480.7982481013987ZM399.7353971026305,484.39418820434L400.00922766905296,483.65103171075L397.92791552869676,482.5059706571128L398.49363088238897,482.485829955157L398.2930229505937,480.7378137046967L399.2424021652978,481.01914683820246L398.6581297151379,479.9139074232046L399.3522354598863,479.2908568015241L402.4014839114152,481.8228100254023L402.7665906759594,484.2552992163937L396.61292667382713,487.1455987360007L394.6228913889445,486.84446261771245L396.5948724529808,484.39418820434L395.0792756663168,484.8962121224397L395.0792756663168,483.7717229851107L397.1059222685135,483.20908061280716L395.7548243145966,482.4255442775202L398.1285234604911,482.1442549771L397.2884759794615,483.0885199563229L397.06981251211255,485.53914816063843L398.82262920523954,485.59927497681315L398.85923986520083,483.6708942875889ZM408.99347731271973,480.95871392106665L409.595803983726,483.02837715976057L408.3540377634845,482.7269657483455ZM406.2175578666993,481.4708625159226L406.18144811029924,479.17024378721385L407.6784884578501,482.16439644095567L406.8931065149809,483.2693610608983ZM403.1963948542989,478.98835458495137L404.86545679095525,480.17180844367886L404.8117943746229,482.9276775791823L402.03637648951826,481.03929081284446L401.9450996340429,478.12509180220445ZM403.09508743789684,473.0784179318655L404.50135249088635,472.35449098044614L404.28218746262337,474.7878802610535L404.33685365813835,473.1789510865308ZM406.17141754937165,473.27962067713565L405.797784906641,472.6159234180993L407.53254606421524,471.16765996644494L406.34544538213413,472.87734824818335L407.0576053477298,475.4312614590385ZM434.4657347769189,476.51689680207824L431.1240993198526,479.67269572672694L428.64056687936863,479.02961821271083L430.83221387522826,478.00446246137585L428.0929057465237,478.3864940933852L433.5524646612603,475.72863702970653ZM411.3486200194993,477.22033634919285L413.393823060811,478.66997145233586L414.74492101472606,482.80725130521023L412.5171642624664,483.93227409455767L413.9966519500849,481.8228100254023L411.60439636507726,482.3854006148299L410.25329841116036,475.57194323239605ZM409.595803983726,480.9185630110053L406.41866801676224,477.2807936099016L406.60122172771116,475.4714368291586L410.3631310483961,479.6324016282015L410.9469019376429,482.4455476932178ZM404.66585132363525,478.64775204666876L404.195424655376,477.6413244071143L405.57861987837896,480.29571996764435ZM399.46106563264584,474.4429765621894L400.39590089554895,475.2691778159465L398.58490773786343,475.27042065434557ZM434.4657347769189,476.51689680207824L436.878552387343,475.68887682689524L437.0585989510755,474.5263727245431L437.4969283502478,475.49159321033494L439.2863557033352,473.7824022291711L443.7418692078545,472.41484338349414L441.8792198774918,473.15878879657726L434.75761956418773,477.6828699141581ZM407.66043423700376,474.5263727245431L409.79691413378896,474.92857209621843L409.55919266641195,476.77820826517086ZM410.61439334574516,475.29043923219024L407.2401590586778,471.9119852968936L411.82356073598567,476.03442325080414ZM486.1775767699846,428.51519536630667L486.28690784630453,431.73384607443927L485.0270867478648,430.9862864261472ZM432.4751972737686,433.1280676248116L433.7901854712836,433.8146919566825L431.9275361409218,434.9037499575493ZM433.47974424490076,439.6237548033582L436.2551621300063,437.3492000651506L435.2506151588732,438.7827351333585L438.82997142596196,440.8215867615395L436.2551621300063,441.4473280411262ZM433.4611878057858,439.3278060694738L433.0414141883739,439.50953469043384L431.6903168918125,438.43948459579815L431.9822016790813,438.21739044145215L431.96414745823586,436.8644627312824L431.4711518635504,436.6826789084596L432.1717765854746,436.1576908731229L433.1191502138754,436.1951320621531L432.12864629098476,437.2683657141206L433.86290588764405,438.0558764648672ZM431.8553172854754,436.2971913746926L432.36486241826606,434.7839213455454L434.1919042104955,435.87493892914995L432.1467011691848,436.03649284507196ZM430.66771504248027,434.09737185103904L428.2754594574726,433.0262479620669L426.3034783934363,433.51175208005975L427.466004562787,432.1959751979027ZM472.01010658257565,444.88042525039646L473.6179833465412,447.13988675485734L471.78893596800935,446.47147224969103ZM484.6253686660066,431.5519570586457L485.35558350980136,432.6834670471583L483.8585431622505,432.7844579080654ZM388.9371462505014,386.762090280974L391.9387503593134,389.1992031385323L390.9161485099803,387.7167711889276L393.23317587405836,388.50877186774915L394.0020082788242,390.07220181557136L392.0480814356333,390.86384634880665L393.5912621005127,390.32995801609013L393.6549550777727,391.3511476966835L390.8609814109059,391.4526189097369L391.17142263728965,388.9556350306159L390.7867563118034,390.94539048529623L390.0244441989216,389.848035378709L388.3960047521841,391.0467268913983L386.9716848209928,387.3309235896543ZM391.71958533105044,393.2996605891542L391.57314137650064,395.5926854419545L390.4592626716949,393.78654527145295ZM400.3562802127508,395.30861603643143L401.28760520660853,393.2184170743053L399.4069009980476,394.39546114687073L399.6807315644701,391.75702538399855L401.45210403935744,392.9547552325919ZM389.7074826806547,392.0293653102285L391.57314137650064,393.2184170743053L390.38654225533446,393.6446909717424ZM409.23069656182815,398.70318778438445L407.47788052605574,397.13463485856687L409.50452712825154,397.23589937092106L408.93830955629164,395.9373459414014L407.3314359141523,396.7692672535311L408.48192527891933,395.4302415249956L406.25416852665967,396.05924158349717L406.03500415575036,397.62116471059426L404.55601802904675,395.856267475162L408.0255416589016,394.6592192413116L410.34206746206473,396.64403818691926ZM378.7733193384647,354.5304490845449L379.7051458932365,356.55035059446527L378.097770690184,355.3661266643717ZM373.27714976376683,351.0638189801382L372.67432087449197,350.20726890211427L374.4823046666943,350.37043463364876L373.6422571856647,350.8599129303898L378.3169350610933,354.71382938500665ZM361.48137313594907,349.3912519828084L364.6399526637988,351.0435122991248L366.1741058895759,350.1868199104058L364.80445215390137,351.83878525067894L366.48454777331426,349.9218259336151L369.643127301164,351.16577016087535L365.86366466319305,353.42924561463997L362.1569217842298,352.3078749144579L358.48679022257966,348.9832146993658L357.3909670533276,343.8001327225147L358.65078749441545,348.59560912722304ZM366.86770941605846,348.02446505226385L363.54463105545983,348.61606123648903L362.777804894351,341.8401283038461L361.24365166857115,337.04066202569015L358.5048451007806,334.0779119104036L359.05250623362645,332.6266708259827L362.3941410333391,333.0356425797306L363.83651584272957,335.835175808636L363.19757785440834,337.8372565888203L366.08282903410327,338.7769704955731L366.0096070568279,341.79933080591854L364.293401681015,341.2683859369188ZM355.0719327882389,334.81347071706455L355.9666464647835,339.36921635860404L353.3557280697805,334.42521280350957L354.0678880353753,332.3814743756477ZM412.5883806534375,399.0610936237349L413.94499512005495,399.9731981657387L412.4845654324654,400.2227222492288ZM410.18007577653316,398.67394216445723L410.21769021567525,396.9070309342692L412.0632877896651,397.9009805329863ZM448.87293136065364,469.8801030517511L450.35191748735815,470.0413170565721L446.2269063310796,471.42912695619043L450.8088033256445,468.7368807563241ZM459.3326555472722,463.3756745855212L462.7685772252962,459.55320395996887L465.30677520393965,459.230948844581L466.21954375868427,456.10834216420085L468.246190360881,456.0076169979736L471.7523246506953,451.45248612924274L470.3646160368198,450.7871654102155L470.6203917250414,449.6781853346515L472.647038327239,450.5651034904697L476.96413219448186,442.6492094101784L479.6803704931999,440.83544677759664L480.2260253823897,437.67710374305466L478.06547253378903,436.35848237514324L480.4075759715106,436.4201887978038L485.081752943378,432.82482556310765L475.7509523169283,449.456372987901L470.8776720960086,452.7400723738424L464.8318351448079,460.35906780767755L451.6117385857988,469.03503071849946ZM334.19110131862,288.3327866471775L334.7397655732948,288.5334315498003L334.1188824631745,289.4374013359716L336.9855772037545,295.2912585003053L337.3506846256514,294.8599805992201L337.02218852106853,295.537552018621L339.9254939216089,302.4743077128144L336.0908635272108,293.6485040035675L333.1695032484695,290.48530104598126ZM488.92541077687656,291.43264032610364L491.94105727657643,298.38243311559177L485.0000050879171,285.14212765114985L485.8224992516616,284.68490725251854L482.52800723375185,278.7983304974298L482.8830840947212,276.88111911720694L481.09215205889177,276.9972665709579L482.53552999010935,276.1138261366075L482.96182324205074,276.0837260738681ZM322.8687607245456,271.6666269319153L325.30063699235234,278.015252961972L321.61094586976105,271.06880805586775ZM320.2779027940451,252.59634483243394L320.86317770868027,256.22278247388226L319.11086323382006,253.05678840403039ZM321.3832556206662,255.69635968756438L322.8888218464017,258.5180435620407L322.1134698071073,260.3518027000366L320.6405024113719,254.83142819566115ZM316.1328305159086,235.36414959053536L316.81991506521445,233.2003681674073L316.5987437932954,239.41343902643985ZM316.8449904815052,249.70624330654982L318.44032953732585,251.8682824087739L319.34657780018733,251.5643954561433L319.09080211196397,252.92669376313233L316.224107371384,250.16047231157722L315.1904724966489,248.32596052638564L314.8363987575076,247.3728817247536L314.5445133128851,245.1625417329269L315.76772375136625,239.27276073263465L314.6864438765606,246.03021211141572L315.0736180066169,247.76527258203805L315.4572818676288,248.67392436343198L315.8093500204668,249.07745285807414L316.26122024961205,249.19640951862925L316.1052472950496,249.57311695743397L316.3700504223725,249.25212996441087ZM323.55534305558285,262.91978351134367L323.6631701065144,264.48905117349045L324.8974135703993,263.5694360078903L322.2102638326369,265.6264676735659L321.7167666770365,263.3695924785138L323.02924772733604,264.8980188471519ZM330.4467446578683,268.72376895407L330.5214713178848,270.12122847999944L328.9697654321735,270.2449672649791ZM167.51607596073973,114.93593829613087L171.6440964825024,116.98650793193133L175.91454912885638,115.79840099027683L170.26140282041342,117.6738494912961ZM160.61414289396544,111.53633486776448L158.75400071082004,110.7718103125735L166.58725942880574,111.51829759336601L163.50892241632027,110.90818327670218L165.79987124227955,110.01889892477288L168.42934607639745,111.119593460646L165.62433872677502,114.4779856854077ZM185.02718719151835,110.73371194044148L186.92644783919422,110.14532760453403L186.76194900644623,109.40953002941546L188.53332148133268,109.17844253911585L193.42666282411028,103.90004609973221L193.64582785237235,104.34188218881445L187.54733094931453,110.16625407081506L176.13471662159372,115.7761917551959L178.50841576748826,113.0873714896561ZM31.406254877153515,61.11835123166338L58.01194994974867,55.91193481966593L73.6243027511182,56.73612404043206L59.774797203804155,56.45006656939722L28.17545649385829,62.05322646942386L22.040348273485506,61.329711202646195ZM201.4795874739184,99.56539420702757L201.02270163563207,101.08073096306634L194.7963172171394,102.91141905425411ZM216.2152808195906,82.34964256170178L217.4565454789181,83.38325678052615L215.90483959320773,85.45034936565662ZM326.3387852579608,168.01496212483084L328.5650379848312,169.04996212192532L324.8878845703857,168.67084104259652ZM13.229123998108662,49.65296275455876L12.447252324283909,46.38889899515425L15.763811707707646,39.92565498107888L15.817975684954035,36.533560963195214L7.146174168679863,29.953594714752853L0.752783112868201,21.803242674622197L0,20.315967250196536L3.0542634033163267,13.168954860741906L2.3676810722790833,10.09888221917572L82.04283572638451,10.56050623951296L173.12809756099523,9.964748205908563L174.54890656578664,15.140212370153677L177.5179118445967,18.769511605278694L178.85195804214072,28.952510587424968L182.1344139128205,32.20809025523977L356.0193064166415,43.128203010347534L354.7880723182425,45.41595038211017L357.31975066235464,49.89476333250377L357.1015887559206,55.5911010733671L359.92966659288413,59.11631401886416L366.1540454250744,59.26321622440901L368.2062696618277,57.782873763144835L369.9776421367169,42.90817075578252L367.1826646906684,36.333445937847955L367.8185939708583,29.21556016337763L369.57241312845963,28.125513985880843L369.2770174147927,26.234365581393376L372.45465494266955,26.792756151666254L373.50433845194766,23.586028279101356L377.00896805901994,23.171217505192544L379.18356395586216,25.784965492972788L383.09743440115017,26.11249438594723L388.93564156775756,29.511570823405236L392.8184178657866,28.969288458156825L396.23929337374284,31.779910660656242L398.3226124151106,30.412513512040732L400.9194884192266,32.025212989405645L400.82169192922356,29.296675706622864L405.6242579774389,33.64936967800577L409.91527264921024,32.46008661335554L408.11832253976354,33.57311267707428L407.6408746760626,46.49864602538446L406.28175240487417,47.41760511273196L409.2191613181576,49.47677192337915L409.09378160729375,54.38759745729112L411.5407027304627,55.86948698403285L410.1891032156336,57.62664099810536L410.7006552494331,64.10050685601982L421.1633881441812,108.61072478289498L441.5050850164944,156.01733288459855L434.199426966853,142.8551128315578L428.9785919839669,129.03838723536796L427.9013245964743,127.67562050670927L426.42233912712345,122.99760520738141L427.88326971827337,127.88527063905735L430.58546562610627,133.58696546229112L430.0899628842026,133.61271979467097L429.7303719750071,135.36340832212818L439.6058243688185,154.61714472859035L437.01045239009,156.46105339240466L438.195045267601,156.11474413142355L438.89366440322283,158.04363619465857L438.4036781740224,155.8058646780296L439.5511588306581,155.43226574327855L440.3465713344549,157.2042602852548L442.23529986028916,158.08537321935592L441.68864184927133,160.5336887769438L451.6207653675456,180.17420177167742L456.97099320596226,186.6701682415628L460.2027947110864,187.7314213178322L453.6293577488959,179.75771808477498L454.5240714254396,179.11206757508307L452.4788683841289,175.48633721926444L451.0364935747393,175.63230346044247L451.54754339027113,173.79822910869552L447.23847449765435,166.39415026527035L443.6049535959655,163.7648058832026L443.98761433514846,161.90299231512677L443.0753473413197,162.53315453235177L441.8370920474763,160.17336582506096L442.5968963557889,159.22279665067572L442.16959998201855,156.54597853344853L454.99901214192596,179.63271166610298L464.2019245955871,192.97342967580107L467.52500295618574,202.5748206024639L463.5810414854659,206.02173218817802L460.531793033937,206.20847074727635L463.19737762445493,206.33319857803644L462.0654446988019,213.59567274770575L463.0514345734664,222.55063540701326L465.79024179861153,232.57156486916688L477.01629058542494,256.5358431501836L482.99893546292515,275.77862503556116L481.5670927753772,276.2770411223207L476.74647184896094,257.3422370142789L470.54416038228374,243.3129860864085L468.4568295109584,241.51792794983135L461.8096683532249,224.2905002221578L461.8096683532249,214.0936806899333L459.70979977375464,213.2014597721925L461.81468396236596,210.75371048563738L459.77499743375574,210.04833276280283L461.57244910411555,210.0067287199522L461.9982407951429,207.9524866143147L459.60999704009373,206.4897115021406L462.35732948607165,205.3366042518794L463.48976462999144,199.74972864537358L461.90094520869934,198.54455565922694L463.52637528995274,199.54186462672396L462.48521765885926,197.40156206476286L463.4350984344783,193.86764989612698L461.2073416822186,192.43282187061664L462.2299435315508,195.4892102071858L458.65058726446114,204.46464168691682L458.86975163537045,214.4045457595173L457.02565874412267,209.61248008075177L462.30266394791124,226.13392745981832L453.9172307062063,206.66532197541756L454.14040756442864,197.54697846495515L452.0876817667595,197.32664081046437L454.1223526862277,197.33919931315813L454.30490639717755,191.64254766563977L451.67543156305965,191.41376199324645L450.48883244189255,190.31129743443012L451.8033190784945,188.77167404724128L449.26512109985106,188.25163643696328L450.89055118110537,188.0228943777065L450.4522217819331,185.19257596114426L454.14040756442864,184.08909532226744L446.1245957928477,177.21614436096957L453.06314017693603,207.0595745470414L469.5867568503072,246.48989581989736L468.8214353719404,249.41730356416883L469.8259823430726,247.6825986538679L476.46812789166415,260.1906745830679L481.27420486628034,279.2750916979105L489.76746450156224,297.83363311824974L488.0011069784623,294.8017517913654L484.8721169151295,295.8866081025601L482.7893000920303,293.07894024226675L480.77769834519495,292.09822365982563L480.81832214982205,293.1144779971562L484.38263224684215,295.744506233181L485.01404747880497,299.3097000917321L485.09128194339246,295.96879444607316L487.9414264885145,295.8281042125161L489.181186465099,300.03269928025725L490.19877270529105,298.7471520159345L492.7785976103896,303.08956211429313L490.36828714718104,298.8834237206113L491.6832753446961,298.8304373172077L497.37102606944245,314.9477948409467L494.14774978515106,306.49404322336886L496.7862527157222,314.702078435206L494.66832860069735,312.32555527811814L495.3438779063317,314.43567823022863L493.11612115407297,312.7968627154721L494.12066812520516,315.11164844389236L495.764152427304,314.7636840920263L496.36647909831026,315.2960324243684L497.6995228313799,322.97339584935867L498.4116827969747,323.5055010777294L499.0872314452563,326.8402568161812L499.45233886715323,323.75109859168697L498.5761816297236,322.5231809174945L498.4663483351351,323.46461423322467L497.77274480865435,323.0144258084049L497.79079968685437,320.5174321418633L496.82286337568166,317.58973534588154L496.8960860103116,316.053919841891L496.1658711665159,314.8454022123483L497.33441540948206,315.0093986765364L500,325.8786958111448L499.96389024359996,327.5764516184904L498.648902046084,327.4128428319775L498.50295965244914,345.55550678321606L499.7261694335766,327.658325493971L499.3244506943656,344.3307776525926L495.1432693171837,377.3332785628031L494.15727878516554,377.0893736357855L494.0660019296902,391.6353481202814L493.4461219413979,389.4822195267441L490.7243671299784,395.085422006179L493.55445055324435,394.59777414750806L492.87890190496364,392.42684913320227L494.02788658698773,391.71646624328605L493.4631736977699,401.53539019864957L492.4405718484377,399.7306295415401L490.21632602257614,399.71029934518924L492.93356744312405,398.2501448485066L489.9154131388541,398.14624669513364L489.90237386979516,400.35931695265026L492.5137944830658,401.3933841167368L490.01170560346964,400.49911202131034L488.8617177996166,402.7721337682892L492.7876250494892,402.8531482078397L491.52780395104764,403.8464156077962L492.3467878457468,404.4748045599815L491.748974565613,408.72897670459565L490.3226483907674,407.2511404358097L491.76502320015607,404.1707059729538L488.6275072586377,402.7486090206337L486.214187429945,404.4544847590107L484.16898438863427,410.65467028188255L481.84995078090105,412.61873090494396L482.14233778643757,415.79750250526627L479.6402489068414,421.5039021265634L481.1558456935054,425.3063330654702L480.3524088724362,428.15683187606487L481.9592825145746,429.1473628129338L479.5128622949669,433.673349333985L477.6502129646051,433.6530972966475L473.6701417374852,439.27859575187404L476.3061362061335,443.3320453309691L474.6170131476183,442.92398510128737L472.69117240091146,439.3806201339894L469.72216712209956,440.58707859242577L472.0612618516907,441.06592939490724L473.1967057037418,444.0900597029397L471.38721722879836,441.7498582629971L469.30540287017266,442.6582164884451L467.9207036217822,441.0032853851683L466.8218704296896,442.6985389978174L465.08761083303125,441.72990230432924L464.8865006829683,443.1828182965521L463.77362509999057,441.8737497115046L461.8006409141244,444.3733805198699L460.8878730167353,443.70752774763514L462.1988487269382,442.4159964112564L459.1887193972925,443.2228616384707L458.49561677437305,444.4339225867552L460.3582667620876,444.3531530100752L457.82006812609234,447.0767316747565L459.13455476269337,445.261106087783L457.4549607041945,444.5115042386433L455.6655333511062,446.9959869137433L454.0225506099223,445.0346111681788L452.8896139050876,445.5635052393277L454.53309886453917,446.632832619674L451.48385041301117,445.42248850049214L450.91763284105036,447.1774194297566L450.5891367364675,445.14003212358125L449.400532028998,446.7764616901093L449.0188744116422,443.80839254703164L447.75905331320155,445.50310888330387L444.26896765792935,444.5955968070664L442.8471555313099,447.01606897232546L430.5032162097323,448.7103114694553L427.01563835903016,445.745383218258L427.07030389719057,443.82848183320834L429.24339511128983,446.6933592474825L430.76400684974215,446.3686981211699L425.0070459776798,440.9223464175134L426.7227497925787,433.41035284504187L430.4666048924173,434.5621510386677L430.247440521508,437.08645209448423L431.85431416364736,436.8847066631379L431.8728706027605,438.2781127857595L431.6537055744984,438.33855850957616L431.70837111265973,438.6212315012367L436.45577006180065,441.79046246204143L441.13044859458205,441.77022977298043L442.59137984308745,438.7827351333585L441.84260856017863,437.51072697711174L441.80599724286367,439.8728426375603L440.23573491803836,439.1058723508813L441.1515121809134,436.4807853830614L440.18106937987886,437.45013746727955L439.61485180791806,434.32234400036805L438.4643624431519,435.0468760983624L438.7933601086488,432.9057006861967L437.62481586568174,433.51175208005975L436.9507719001431,431.88992678378713L436.14432571358884,434.2202610872996L436.29177278996667,432.6834670471583L433.86290588764405,433.6934616961264L432.2013667073452,431.61258714846645L428.75040017395804,431.6529609074498L428.1475712846832,430.1376431254655L429.2273464767459,429.8118173049834L426.5406976425447,429.1271003515544L427.34413446361395,426.9843446011016L426.23025641616096,426.2719192984903L427.8190751801003,425.831831018402L426.1389795606874,426.0542380203283L425.2262110059428,423.80977695105116L426.96097282087067,422.2524091541468L424.44082906307267,422.6164307361453L423.0716762309585,421.20053636324496L423.96338054201806,416.8088885351697L421.41164173340167,416.6043140853983L420.0585375358287,411.1608852860443L417.4877400698306,408.78684435310174L418.17783332726776,406.23794696336813L416.37035109597946,406.72438331132525L413.55832255091264,404.6573975226281L414.16165234374785,401.9158703562566L411.5497301695623,401.3528701687087L415.8407448413327,399.95356500488947L413.9234299728105,399.324987576937L414.18171280825027,396.44469959093885L412.4991093842664,398.22981117382733L410.58179451574415,394.9637909317239L406.19950298849926,394.0506003070261L404.85342064372526,391.20855690188955L402.7846455541594,393.27931453011934L406.3273911612878,394.4563510299047L404.28218746262337,395.7143076617533L403.2415313924448,395.34915829970123L404.28218746262337,394.49689656363034L402.74853645511394,394.7808538747836L402.85786753143384,396.48537528884276L402.1276533449918,394.4360076970338L403.6608034489427,394.3143682058467L402.1276533449918,393.84757825644965L401.85382277856843,395.0041952945155L401.50727179578644,395.22641627661255L401.8352663394544,394.6592192413116L401.360827183883,393.72579093425725L401.54739338214495,392.8319791616793L401.0503859574992,392.6501119139091L401.360827183883,392.04135126706797L399.60750958719564,391.6759076425453L397.580862984998,393.0966208733862L398.26142658506615,391.83744597278655L396.11993173649444,391.919538446258L396.08281885826636,390.47702445264395L397.51115127676894,390.47702445264395L398.2198003159656,391.24967528933576L398.36624492786814,389.889440192419L397.19719912398705,390.43757457044876L396.2112085919689,390.11276869404014L395.5903254818486,390.68124110375857L397.7087505004338,388.6102765624735L395.8842165127744,389.2604082160915L394.71416824441803,391.919538446258L394.5677236325164,388.79306606155546L390.27670896074596,387.2090441396374L392.48641149215837,387.4933805344035L392.3926268321138,386.3190192825607L387.68384478658845,386.1529133240449L389.2210073778515,384.8126561839272L387.39246156023364,383.28328863962474L389.4005517233163,381.23593935140207L387.57451371026764,382.5773128308231L385.67525306259176,380.58589839691854L386.38741302818653,384.34507232166266L383.611995143081,377.6584289448151L382.07984816095905,363.04797611255003L378.7186538003043,356.0185131474932L381.2563502180328,358.8512848214468L380.1244172923807,351.6960925116284L378.2437130838189,348.7384945013964L378.2437130838189,352.1854940765181L376.728116297154,352.1447465658521L376.344452436143,350.3499860367265L375.8334026206103,351.9611711048351L374.1352521229974,349.57474373112996L369.8076261339129,348.8812371836L370.93955971691867,347.80003159359967L366.7398219006236,344.1062458866609L367.48859252617876,339.65501688340123L364.6399526637988,334.58868465324144L367.178151299795,325.2037392497448L366.6119337278351,319.76009108578705L364.1835683864265,317.11884041260237L370.59300873413576,314.0056790195299L372.2911592317487,312.36649687717727L371.6156099261134,311.13717911732806L370.9581161560327,313.3294779508883L370.90344996051954,310.85011996224466L366.64854504514915,314.57914745174435L362.6313609398021,313.41135104823456L360.4948810430169,316.46342326517015L358.3037349507176,312.24353132220267L357.6101314242369,313.5752349514787L355.32770913381773,312.9607587447108L355.0022217373644,310.78398264055477L351.15505297746677,307.1502473376213L355.0353221282794,313.3909529159057L358.5048451007806,315.5418721077315L360.86049002582786,326.34923696617534L359.61872380558634,326.9627265417257L359.7646661992212,323.7714706215552L358.46823378346653,326.39025034010297L356.4415871812698,325.73556168562754L357.0439138522752,324.11934025553273L354.962601711919,325.4287782100869L350.72625257830896,322.1139753361542L351.9860736767496,324.40580140694624L348.3886625314617,319.24827133595477L349.88620509727934,320.21045599062927L348.3525534324144,316.01271549395483L342.20791686938173,307.3963284661811L348.07822130507793,318.593022595001L341.34981385279934,306.61709408308275L339.8708283834494,302.65897303092015L341.5138111246333,301.4690683922979L339.9801594597693,302.28963752959L337.55179477571437,294.0798446259305L334.94037416244373,290.77278722717415L334.9719698706167,286.4488563350767L332.4357774782766,280.096467150212L325.0253017431869,275.7212496877928L328.4211011774996,275.84122859435365L328.0384404383167,273.64231228077074L325.4089656041997,274.9186549336971L326.8573584872047,272.2045980335147L332.53006369923514,274.17746817138686L335.5000714425214,273.60697379859516L336.7187678327755,275.2329753683114L337.36873950385143,272.3298602814393L339.4324989842771,272.5099743409053L339.39588766696215,271.3982641106477L333.5526648912137,273.3542246680631L328.09310663383076,271.56284555396473L330.72258146794775,270.5949612460622L330.9733422043828,271.9884238254765L333.77182991947757,268.3500733310552L330.9929011079721,269.705876864625L331.54006067990395,268.1195103341104L329.07909650849524,267.0108785567536L332.58523079830957,267.71127058724096L332.6213405547096,266.02179491826246L334.193609123191,266.61941868666963L333.2843514948454,264.52131681976516L336.4013054109482,259.46655212695646L338.15412144672064,257.5896777237333L340.7299338645071,258.797311338064L338.9028927296313,255.87740974564076L344.2897305706538,251.58494818049644L344.3779987179978,247.70004085788105L350.23726947093655,246.23786055798905L344.0705661997454,247.62062722377618L343.48629374958455,244.43948219601953L341.98875184111967,244.37762861970737L342.3538592630175,241.89783240393967L345.8233822355178,240.67844089184632L343.2671293786743,240.43033946892L342.05244481838054,241.21109592584503L341.9155298638452,243.90235921729368L341.3864251701134,240.96783648898372L341.1120930427769,243.65435649514689L340.1993244880323,241.4018385462116L338.328149279484,242.83524195930067L339.45055320512256,250.0158706441705L335.4699804170896,249.21072936577252L334.0847789504305,247.9406866336717L335.7423063007709,245.8822731968553L335.89025493806184,241.54645356834772L333.7898847976767,239.00388892796718L327.9070419964828,239.25203515194676L333.13289193115634,238.79718944994693L328.4035478602136,235.3023683253425L326.89096043903373,236.78159094689477L326.82074716989064,234.62586251628068L324.8362283977094,234.03112067478742L326.1662621079404,236.36324387427635L324.2765304602781,239.31421247782646L327.69439726010296,239.29320269551295L323.47309363920795,239.91353042098945L322.68821325725366,241.4432793096546L327.87043067916875,244.53736919518133L329.2802066585573,243.3649162237898L328.659323548437,244.99728017008306L330.4647995360692,246.16921214367744L332.29585315825716,245.7459632608536L330.15636389598785,246.9390594997833L331.374558725327,246.85467433485496L331.8179037336404,249.54107487887404L330.44875090152436,248.57069940129486L331.90918058911393,250.47022417958874L330.409632436993,252.36660845308666L328.9512089930595,251.70882819699818L329.3348728540723,257.4865665895004L325.9827052751625,259.48057094079945L324.9525813268265,256.3314338529867L321.39178149885174,255.50609674749717L321.73883404254866,253.85531100360777L320.8075090486918,254.68081731201687L321.6470556261602,253.67676616812423L319.3831891175014,246.89778904242303L319.9263362021211,251.68218146876484L318.4137487809403,251.12130160922584L317.28783392890364,249.33904116824192L316.31538422685844,248.7771480043989L315.8384379240697,248.99280759214753L314.76317678023406,246.15417747093215L318.5065303191577,237.63923382284042L318.8901941801687,233.17138682171185L315.9678301222457,232.1944857946621L315.5520696495014,230.05685091008968L316.1874967114236,232.03350493839957L319.30996714022695,232.5508219628514L317.9222578689969,224.02140879211083L320.04068354493575,224.7878388688191L318.059675041799,222.8452386778588L321.17261647058876,219.67046124407057L324.03931121116875,206.7068000825359L326.6101086771678,203.72676276862057L325.5915193151477,202.05569319394635L327.50883418366993,198.37832536787982L326.6507318244412,197.35989143220922L328.42160273841364,196.96501169822864L326.9521456117245,195.59797798356044L328.25208829652365,193.14534281563874L326.5955640680122,186.91981164393997L327.9090482401389,187.17530632542048L330.4848606579244,183.36045532959292L328.88601133305747,184.6921693560355L325.2539951141098,183.7058418078268L325.3643299696123,181.6368676387517L328.47676983748806,179.82022054545268L325.22741435772423,180.17448820812706L325.4636311423592,177.00768325925787L323.6742037892718,176.79950315910241L324.80613671492483,176.59088766341256L325.66474129242215,175.56976676972386L324.441029293027,176.44494007575327L323.91142303838114,175.04870950712188L325.60957353599406,174.75689580550193L323.32113317195854,175.01994348390463L322.38379010448534,172.93865011558114L326.04790293516635,171.52561257456227L327.6181659173444,173.69373939050502L326.9496384645072,170.8340334552006L328.5494902538485,171.71303010497877L329.02443097033483,170.37867429255152L327.4657032318264,169.31391787109214L330.010421502353,169.2106573358376L331.11477120714426,171.10365668037707L331.34346457806805,169.66952134016537L323.36376190553347,165.5179916926652L319.0546930129176,166.31090868442493L322.9986551409911,164.74577310583004L322.7794901127281,162.24101519713486L319.63896480572475,161.76092575097255L321.9213877534976,160.3200493401373L320.9168407823654,158.04363619465857L318.85358286285464,156.03813542472903L316.8449904815052,156.30970660965409L317.776315475362,154.8681037835006L316.461327277847,154.49187693648878L318.90824840101504,153.48880314304597L317.3745973935047,152.54803452940723L318.23269975273433,148.80564255805552L315.82238928952574,150.35303687379906L304.138451542598,148.87873328000887L303.66150523981014,151.20722389402L301.342471632076,152.44368917952784L300.5024234936918,150.64576837837762L302.4197390195686,151.27297039006976L302.98595659153034,149.5373806160444L300.1553709499949,147.52981710804602L299.73559798993756,144.99865356323585L301.6163021984994,144.28717546948337L298.54849730785645,141.817613314641L299.5164329616746,140.35217125187887L297.79872356047235,141.74675475812796L293.8923752141882,139.82888546991558L293.5819339878044,134.34129904624024L291.5367309464946,134.00608025337124L290.5176400235614,130.37831314886012L286.49243160094284,129.78309180825318L284.30880826500015,126.25457112571485L278.48564661110777,122.93406550686495L277.5864195436916,111.88956616842665L279.21134806403006,111.34326299946474L273.02157430549687,110.06133059866738L272.4734116117379,108.25329875923399L266.3909640005768,104.66150740117064L266.26508207144434,100.07063712628178L260.0873451174966,92.29142829981492L243.45891075867712,83.38325678052615L239.80683407522793,80.55612431448708L240.42771718534823,77.68603846785254L239.35044979785653,80.15534883933333L239.11272898783318,78.29797057525411L231.44396975995005,79.83888646565538L230.38475725065655,78.61478813294116L230.12898090508043,80.23982391673917L227.33049318998837,80.89255006299118L228.33955355199305,78.17144330492738L226.33096182799545,78.86797148512187L225.08919560775394,74.70900338737192L225.14436270682927,79.43778326438905L223.40960154925597,79.92321999788828L221.30973231243024,77.91823646538387L220.90350018234585,81.84147476073531L216.36623882236654,80.40224959498437L215.26540004397248,85.23923439943883L213.8049703563829,83.61542385801795L213.43986293448506,86.86283978015399L214.77240444928702,85.55561463999084L216.6345528760885,88.64544902242142L210.1554014775038,86.55274004284274L210.1052493302168,89.35461205874662L216.83465924696975,90.42633429515809L216.30655767506505,94.1964136286615L211.24520657314224,93.7956396008799L210.13333411199073,92.7653331576712L215.43591695033683,93.71030478433204L209.8810693501664,91.75398240137429L204.65672409823492,92.97464567343877L180.73617251974792,107.45437120591373L179.84145884320424,106.12961846969301L182.89271353838922,100.59260803584903L181.6855523918057,101.81719158324904L180.40617173242208,100.97698260456718L180.86255600979348,102.75583243088704L177.6743863600741,101.97611980457032L178.32485959206588,104.53253247610746L176.02538488792015,106.17163882543127L174.10656533665497,105.60514013515831L176.32128216250112,107.0561760310452L173.9801818466085,108.02203154640506L165.81692299865153,107.87102518415668L150.2421846364232,111.91063232792362L148.60020435971182,109.59875461233537L147.3754898958432,106.55024382649026L146.09761391920256,101.3333061064277L145.9697264037677,98.28147119018786L148.08764986143797,95.7547584992999L146.43714370654197,99.15001822649765L146.40755424202507,101.2070192083388L149.51096667080037,110.71841473284644L152.77386298053716,110.08687605319506L153.0893198160611,108.89249566458238L152.46994138868286,98.63936669935401L146.95621849669988,91.28855085535997L139.83411662248182,88.53096382455624L138.6304664022964,86.96243993502549L143.3462689859116,89.2055485882106L134.77627644695622,82.20203450233112L137.22319822747795,85.9562467499386L128.2394501447252,76.925908475097L129.33477241041874,75.61709922283308L130.6131499479734,77.643859256817L132.60318523285696,77.0315835039637L132.7496298447586,79.39561389181881L138.33707627493004,80.42977940927267L137.971968853034,81.94881839281561L142.29909328120357,85.99837935674941L146.22500053107615,84.45901525681256L144.4541296171028,84.60657980252745L145.3488432936465,83.00363449089309L147.5399887285921,84.39558618964656L147.5399887285921,82.4340929849186L144.65473754889808,81.9699680990575L145.14773314358354,80.26083333537326L143.41297132865657,84.07930221410334L141.9159309811057,84.10044593133307L141.27699299278538,79.12129066113039L138.90279228597683,79.18447476249821L140.16311494533238,76.08161608303863L136.5657038000436,77.24278394278372L136.63892577731804,74.37114022008063L136.01804266719682,77.36947201887642L133.60773220398914,78.50942564977413L134.3745577077434,76.96823688133236L131.25208727894096,74.56124505288153L131.0514793471457,76.22920081277016L125.13503459412277,72.99835954176251L128.54989202846264,69.72361089606011L128.71388930029752,67.44114559488207L133.71706393766272,67.99063773353964L135.32393757980208,63.5083249355921L137.04064451652903,65.74988977769817L134.63033405332135,60.3776019450479L133.68045262034866,65.72869425295448L130.8323143188827,66.44757388842527L130.7224810242942,64.48123318335183L126.04830470977959,68.64588287252172L123.19966484740053,62.59890346408565L122.06722970347892,64.62919145796377L120.24169325134608,63.67764855487394L117.81282634902254,64.79834502614221L116.55300525058192,63.52952676299037L117.53899578259916,68.75152943151261L119.34697957480148,69.21647296720539L120.86207480055236,67.18728588925751L124.56881702216288,69.99842348586299L123.94843547295477,73.35745934029774L126.68724269810082,75.30044546843374L125.75591770424307,76.17729957509164L122.35961670901634,74.03326182540786L125.09842327680781,77.13711188779007L108.37269464625297,66.19382580425827L110.58189495939769,66.21502000963073L110.07084514386497,65.07319332504767L107.67858890150364,64.8405966609721L108.19014093530404,66.00350832535378L89.54659456060472,59.212360368100235L73.69702316747862,56.25063388636954L75.5290799114955,54.621974197561485L86.0188951235441,57.30777090901347L87.00839658196219,54.21820744260958L87.7937785248314,56.22970171083307L91.48246652559556,56.75894469900504L92.53164847395965,56.02764671786008L89.9849239597761,54.80952881454414L91.31796769284665,53.81572621613077L100.22999782371244,58.072512898535024L100.0644958691355,55.04389302438676L98.51228776515654,54.36636883993788L99.49978297991674,53.77486662241654L97.56391167228048,53.647632178699496L96.72286041206917,55.36126100257616L96.99669097849255,51.973169542206506L98.80216696612297,50.521342905753954L95.26192916356467,51.82335981903998L94.45849234249545,48.60448561701787L93.0893401677331,50.27694429991652L90.86158341547434,49.387001323402274L79.96052046419936,52.07774333789121L78.15253667199886,48.62558499095894L80.08840797963421,47.792345664863205L77.75081793278605,47.522097355626556L76.90876420810127,49.54122493364275L74.86556741044569,46.71668000129921L76.20111829073176,49.75218629952906L75.28584193141796,51.29405679757656L69.1141230510857,53.49669278613737L68.95564229195224,50.201586046742705L67.32469569799741,52.11992153247593L68.74851406827383,52.757075736113165L68.0549105417931,54.00490131852803L65.71782205585896,53.51777826939042L68.01829922447814,54.23769077619454L68.73045919007382,53.92012924973824L68.7851253855888,55.741125298654424L56.44168762492336,55.234489678124646L45.19357212995146,56.35660164543424L29.782330135997654,60.25077124971267L28.577174575716526,58.93889439449822L40.919107653639,55.73865436460483L46.124897123810115,51.824959680250686L50.00817498275228,52.99470309173239L40.71900062540408,48.152661431845445L42.452257757588995,46.63066020866472L41.700979327462846,44.6260267616758L42.97283657313528,42.845697810982074L39.66079123793952,38.44698734609392L41.781222500180775,43.044617481653404L39.406520232459116,45.385525172031976L37.40845997295037,52.39436562139372L35.15311934247711,52.53950958807263L35.77149464802733,46.63328068885039L33.160576253023464,45.912629772641594L34.84017031152325,44.70406207456017L29.63638708500912,41.904908003603396L30.77784901067571,45.06467371525969L29.457845861373244,45.76721040245366L32.04669754821771,49.04944411349288L30.32948905057583,53.97276627801648L28.120790298345128,55.91193481966593L24.797209719477905,54.89574435858549L24.249548586631136,55.99668343431904L26.045496231602556,56.27650827860771L24.04693441117979,58.0499880829957L19.83064639942677,58.642458812032146L24.28615990394519,58.748247028929654L24.52337915305452,57.96511654456526L24.500309323067995,60.229995796676576L15.520072166715181,62.93076344449719L9.166802697261119,62.66222640157139L14.078700479151848,61.879653174145005L12.836934258911242,61.7949706825234L14.644918051112654,60.102580638251766L14.790860444748432,58.113349667602506L13.768259252768985,59.61585639293344L12.910156236184775,58.642458812032146L13.914703207316961,55.80610630159754L19.48359385572985,53.70986787445827ZM488.42338774308973,425.8657059114821L490.380323294411,421.30179855048846L487.03567912921517,428.7429473145637ZM329.18491797312345,283.2364265076651L331.86203780731194,286.57333599697336L325.22039316228074,278.218976494813ZM353.09995238155716,326.4725563097611L354.3051072844846,328.0263949832822L353.447004925255,331.74760770839634L352.0041285549505,324.7946650819988ZM358.04846082340737,326.7173640972035L359.34489323916387,327.678828626669L356.97119343591567,327.6991918167896Z"
          data-id="USA.10"
          data-name="Florida"
          fill="transparent"
          stroke="black"
          fill-opacity="1"
        />
		
    <text
            x="411.091064453125"
            y="259.69903564453125"
            dominant-baseline="middle"
            text-anchor="middle"
            font-size="8px"
            font-family="sans-serif"
            fill="black"
            stroke="black"
            stroke-width="0.2px"
            stroke-linejoin="round"
          >
            <tspan x="411.091064453125" ></tspan>
         </text>
  </svg>