<svg 
      xmlns="http://www.w3.org/2000/svg"
      xmlns:xlink="http://www.w3.org/1999/xlink"
      viewBox="0 0 500 500" 
      version="1.2" 
      stroke-linecap="round" 
      stroke-linejoin="round" 
      width="500" 
      height="500"
    >
    <path
          d="M482.4726618039531,371.7301567236716L464.446349677497,379.66919528438075L455.0698564331615,378.9096768515856L440.4506222790842,390.2235391553147L435.6857729840558,391.3682303642572L426.8447983772021,407.67447267019907L419.72563464950326,413.36903663018666L415.4850586164175,407.86378501056697L400.89955874667794,401.09845137824846L397.4446916128254,393.1114271644785L400.6184464656253,372.08244093607755L397.36879085478904,358.1387143363336L394.58015879535196,357.18863119919797L392.27504011723977,345.57708098735657L387.108199965538,340.93386868423295L384.2928629026228,333.5302765303063L386.36606413309164,327.65772007425653L392.5322578175583,321.6740516629079L397.25634631082903,321.0411878165776L400.1827231669122,313.7284971898189L406.0509374281537,307.84620702171514L399.17071950781246,290.8300887560549L400.8222532378495,281.60564062176604L411.10954913057685,282.66934821402674L427.161048772241,294.8622364032394L436.4152586901637,295.80883002641144L456.39108304872934,305.02305576911704L470.70249899713053,316.69487089180484L474.64228518425625,321.80984967143786L474.23326688901943,333.6934076044531L481.90903249105213,332.68752851119507L483.95552779690115,342.3481307779755L500,354.20289526035003L497.38987446010105,359.5764043689039ZM314.5405222363788,224.0336134965669L315.79287645363183,227.5921676849796L313.094200950507,232.1000863640977L301.21159267857547,235.05858276346112L298.3456551103027,224.6310571086549L292.3059626892318,218.1957059441704L295.78613007576314,215.8126465257203L305.7262526329996,216.48810516305093ZM336.24518583381723,256.8691667897431L328.0268741557338,257.6943308219011L325.46734912119064,254.9626204310905L337.6985354794069,247.55606662740706L341.0142521446742,254.90446142405608ZM376.9755150904748,246.0799123852364L371.5711357245091,245.28846434533148L355.5842914653331,250.5081293060075L350.00562259565595,248.2394716213239L347.3406795345727,230.10112050899966L344.05166879392345,228.55163341969092L340.57290615818783,230.78137775361893L332.5808901611181,227.45063818896165L326.73235346478396,220.2017289187147L325.76532762326497,215.72141623320135L328.56379846515847,207.87882106391453L335.7785395946521,205.4547537823796L341.7409274280435,209.72987048885466L346.34694868958104,219.29137019045334L359.65338841744597,213.8950113601877L367.9433838377372,214.88113653160144L379.5856406303719,225.67116889867611L389.82093126694417,228.76456864945249L392.0726390169584,232.62317832725694L390.22994956218645,238.5872698912849ZM291.5624211848426,198.62403181807485L274.86295744058225,200.2666698953915L269.20136037429984,198.50557720886923L274.7828405878663,191.00085672153023L274.45112872260324,186.35764147829536L297.88463155891077,190.86274399062063L300.59736286031693,187.21237265943705L303.11050532647823,191.47057979853616L307.0727795012499,192.6507558525343L319.2027657698982,191.07170210183335L324.61979618335135,193.0804864381953L318.5801028411297,200.3796499135974L309.46223296905555,203.93487219788108ZM58.10867820166095,120.24854624491627L41.29114722566737,108.0569572274735L41.448570508362536,102.61025067704759L46.959772651664025,94.46230950346262L60.550136004469095,87.21971978634338L66.93419133828866,89.38454087340915L68.85559289498633,86.63096336981334L81.40584099212356,88.13355157735487L86.75540375804849,96.79329591095802L82.68771247788027,105.03674546713228L83.26258624517868,113.40361684020309L80.19987026439958,114.78097605233597L81.7530143276108,115.76707463056346L72.7911620662835,122.6222193557719ZM4.703005256420511,126.70104748561289L2.912321057796362,131.44129725592893L-1.8189894035458565e-12,130.1423798317769L0.40480127940645616,120.88417760667835L9.854383937896273,114.2208425083063L11.358333167692763,110.01657337782808L15.348718939028913,109.18754549846562L17.139403137653062,111.2572766047374L14.557389194318603,113.93044280951608L15.350124610971761,120.09574057697864L7.315941219054366,122.69510650500342ZM234.12841208924692,182.33360789180938L231.76707021800758,180.59618274601735L222.8712790111167,183.24230309061318L215.62139792534254,175.81724033760997L214.35498790981,178.52797106376647L210.38287495258373,178.5504127569809L208.69339084352941,174.0537583087596L211.81092434549282,171.49746976095844L209.45098814619632,170.2757620133309L208.61046264692595,172.0534767713673L206.49931103743802,170.33368968400828L208.37995087122727,174.7733991577179L203.86669658874598,171.69010296991132L208.12413884285525,175.04823077974402L207.6884155441403,177.38304968717603L195.9070082829203,179.27907069738308L184.42920221154782,160.83881872960455L184.55570255379462,155.64744395939124L179.698085358561,151.62411422654532L194.92873798700748,151.14346030789102L202.28965794480064,141.1919756191187L208.89579194380713,138.29776819738936L220.98642216149528,156.2554363594802L220.53242604867046,163.4421111371355L225.90728906727418,167.87657654685495L228.08169130845818,165.51247790185516L226.64942489972236,163.34073770114628L231.32712990346408,163.14988065830312L229.49287355919842,167.8826160609492L238.086470169339,177.9561816469186Z"
          data-id="USA.12"
          data-name="Hawaii"
          fill="transparent"
          stroke="black"
          fill-opacity="1"
        />
		
    <text
            x="434.360595703125"
            y="346.359619140625"
            dominant-baseline="middle"
            text-anchor="middle"
            font-size="8px"
            font-family="sans-serif"
            fill="black"
            stroke="black"
            stroke-width="0.2px"
            stroke-linejoin="round"
          >
            <tspan x="434.360595703125" ></tspan>
         </text>
  </svg>