<svg 
      xmlns="http://www.w3.org/2000/svg"
      xmlns:xlink="http://www.w3.org/1999/xlink"
      viewBox="0 0 500 500" 
      version="1.2" 
      stroke-linecap="round" 
      stroke-linejoin="round" 
      width="500" 
      height="500"
    >
    <path
          d="M163.37712835512502,424.91676932143673L160.83949900313837,429.41886064860637L160.83949900313837,425.29283617006786ZM387.39501086151813,327.32045615289735L389.8916901508528,328.6221164890203L386.2569887694299,330.12522778221455ZM367.6379306328927,339.3517879468495L370.3369121077949,341.980053706277L366.9277364792988,340.9634075201925ZM370.4615927839004,330.2020479094185L372.8610951825094,332.31446426589173L370.2959628462322,331.55033083010085L368.7942872467511,334.01102677484596L368.0193082323103,331.02083499940636ZM364.8503278967728,339.1640752905014L364.2000303595278,342.7168401568756L366.4803515573658,344.2920883380166L364.3564926357649,347.02881300617537L362.83831540592837,341.2607488453573ZM291.7730905785993,384.47717027548197L289.8221963646811,385.2385736557785L290.6381246406854,382.6790732936738ZM281.13668391049305,386.92492477279484L283.2501527089953,387.5137494676683L282.42688966297555,395.532517380233L278.8441388970523,396.67713929981574L280.1349558803686,391.787527619329L278.4884313905095,391.4775808061836ZM105.68090536126147,484.16565557557533L91.98247574278594,464.8730610165371L94.75296481662554,446.9604181183827L93.06915764912083,444.4322439540806L84.45882097996764,249.85735900068676L90.06947463625875,248.01567985825477L90.23938318976889,245.32870276860876L95.2437447245502,246.00696502051323L101.5303660109621,258.44651486717567L106.50050102227306,248.18213926563203L105.16445616155033,238.85249282660425L107.34393228256704,235.83816568729344L120.1121422709457,241.01485269795194L120.51613380906656,236.537889510058L113.77846021571077,229.19243398051913L113.56699116980326,225.95421857819656L126.15429125073751,209.14617025023745L139.35888480711583,201.8577505692283L137.57239887028572,194.16352603111318L150.1346408902673,183.09436941322838L151.85572993432834,176.3286936044833L145.93153969363811,174.23278804439542L145.94681966341432,167.9704262442774L147.120289939553,160.72345215653058L151.02574495130648,159.06841233921114L152.00485904272773,153.55203137943863L147.72780452273128,148.31207087526582L155.4714847620544,130.644880310173L166.5412196450743,122.3677293801884L171.35366911738856,89.61473137944631L233.45957250711308,0L247.70439923293088,3.774593820571681L247.43914587902054,24.16592805388973L259.44093328355484,33.20477399603169L272.4438374873789,26.369369239373555L282.27715012482895,25.02849125645571L284.8410599994377,20.199126439649262L300.85892638481255,20.13785711214223L302.2481443227007,12.273292482247598L313.0214554825152,12.397789409526013L334.70620395443075,30.41501762209191L341.00199370336304,41.9935486692284L348.67355431182295,46.56298692682503L348.8831896652282,176.62403357657695L351.0883350780314,179.6509282890529L347.09914865173596,184.34068343675426L350.4270361868503,190.2247962499714L347.0881472978026,193.59943273395766L348.7646204963803,201.3306711632049L346.6780434513348,202.19656346274496L347.12420671268956,205.33214709561435L351.37497990897464,208.3498744500439L353.13518532318267,206.14544129494243L359.83252088580775,214.41165740956603L374.87188441059607,215.72003837234752L376.8906196395319,218.12554004479534L377.9125166850208,227.3265279846073L375.2697644414593,226.50239211847656L371.9351533671643,231.09876243622784L377.6802673929142,241.6670300981973L373.18685478142197,252.0373179824719L374.09140511973237,256.54608242089535L383.08800843389326,269.0901524602755L387.2391590150255,268.209807783478L388.95046996790916,262.91135151112576L398.3675672516365,266.705320622209L406.4180605361762,287.875946961281L412.69307003891026,294.53936167903566L411.8698069928914,296.9601413596829L409.84496025669705,296.2060905001158L406.77743622881553,288.9389076973548L405.68341955246524,294.2895097312894L403.2765831849292,289.9131707690076L399.89796749598645,290.64334180517653L402.54805450956337,293.5325604938166L397.5388039291947,290.8635419947814L402.59756020172244,295.92696584544L400.81046303405856,298.12210541752074L396.6935389763976,293.9438441231655L393.6687971014944,295.2931749061436L397.052302637112,295.7004644889266L395.89227863824635,297.6511347300352L399.4621943577322,300.24666195584405L398.07297722093335,307.19158005625604L401.1203322334495,304.95081500739343L400.7212305420053,298.5305122946256L401.96743087875166,302.26622285644225L404.5710675532546,301.9524453517165L403.05411278508655,296.60771512039764L406.54885352062774,299.68788494942237L405.3497139527017,301.51278565601615L407.2150422584855,300.8575528485544L406.37405592152845,304.713857390107L409.5106434260988,301.51278565601615L406.4009476749852,295.2310432646336L409.98003105590215,297.5571081350927L410.022814009968,302.0464073189878L412.8947601925538,300.2557159669468L412.4473744695306,305.71634620689565L415.5411790200342,305.7490841792255L409.82234631799474,310.76607766335155L406.0397390909302,310.74240320677336L405.5599605369407,313.95400149948455L402.00043494055353,314.16050812753247L403.7251913696209,315.02733718624086L399.0453685742623,322.21649800429986L394.5189519009682,323.55869736838577L396.3054378377965,324.85036813177385L393.06739402557105,325.8957182647241L392.00515894935324,322.3157540517045L389.7492845816323,322.5636741286098L391.07432808842077,326.456977017775L389.36179547495703,327.21912861271494L384.92216717146584,322.9159878802452L386.8626704611961,322.65605097620255L387.4921885533313,317.94101479078245L382.1626786504712,320.13090023182986L380.86330523656034,316.39036877622584L375.2062012411943,316.0050151012333L379.7485083140091,317.3398937793945L382.09055901961074,326.8893752493609L378.65815902266604,330.44709384134785L375.490401148797,321.7837902866977L377.0739744703151,328.24263483689856L374.67630656529764,330.28315790474653L374.30776321122903,327.01303471082474L371.96204592170943,328.97152801280026L370.92120232252546,324.8731323632219L368.71972349364114,327.45956497107863L366.00301792671235,322.9357517125791L367.90623933988627,326.6832698203207L364.05090125112656,327.4806026189681L367.6501544484963,330.1355274445423L365.6680898652812,337.7517751422324L359.97676014753233,338.1967143304728L361.5529995001225,335.3889717947013L358.6657741488507,333.1038169172439L354.0825178144705,339.0740750245923L354.9198375675078,341.10179747269376L353.1217390459087,341.4398322443112L353.5905162459667,338.9146413718813L351.93971233917546,341.44325990945526L353.07345581541995,338.40674267159784L350.57310833998963,335.5056101867349L353.23786329141876,327.6106908071224L351.30408273978173,328.14947829931225L348.36796292718554,338.86921049068224L347.2598895438168,328.0245528917553L346.92129409737663,333.9175228769018L345.55041228343634,330.6608044564514L344.75648671530143,333.32559097226294L343.13196413221976,331.13883815315603L346.30522228251266,336.37904380268947L343.52006446973155,333.87720473414447L342.99200268525146,338.01454198439615L339.8334124728126,335.1809903550097L343.419830623744,341.6844576849453L341.8405359180697,345.0286159394868L342.360040470865,341.5178055670658L339.86091625819245,342.4713964919174L339.50459671972567,352.9436306179732L338.9258067814171,341.9097964635271L337.734001182419,344.5490261310042L336.5134701374591,343.38758785664595L336.3447840456183,351.23057678535815L333.90983346295707,340.61120781899353L332.0029446647759,340.75560313682763L331.9167683268952,345.5586937729836L329.02343066727735,342.81450212859045L330.60394863571037,349.6103557572578L330.8038050968498,346.1820567318741L332.7901474948194,346.78609834458575L334.64080786274917,352.17633999070586L332.58967980284524,354.07943232116804L329.33941217501524,351.3554885557828L329.29112894452646,357.03347561135524L326.60009266938505,359.8101772913765L325.1075855324243,353.65951584822733L323.9053898103257,355.52755039795056L322.17024325815873,351.4483154939953L323.17136005745033,343.96833273103175L317.81801375421765,340.47280749785705L318.3870248002613,344.062120906156L315.96124187902933,344.3738815535421L315.20520941828545,339.85061409604214L316.8071188637514,339.7259108409362L311.1775178526759,336.54196834090044L311.0436687140518,333.23207839960514L313.87405440423936,331.9068808594948L307.7946235478912,333.7317996472498L314.3122724658324,339.28578961546646L313.4217796356297,344.9386951032502L310.3316416690441,342.1903885731808L309.9533194227097,337.69733398909375L309.0634386244301,339.85061409604214L305.65854161177595,336.8853837243746L305.480687858505,340.4123907378148L309.8200823160096,341.62919345511546L309.93131751593046,344.2488366796538L307.72800499454206,344.21800308421143L309.7308498239563,345.77662092914215L303.6556967823617,346.2758132277572L303.0102882907031,341.62919345511546L302.9882855828355,347.3044766043636L301.27514173853615,349.6728279323652L299.9177062018698,348.2392515031611L297.89224743375144,352.6318500554735L297.4699205727693,341.4732496567508L290.9944441791513,341.78513354029565L293.79793731479367,343.1263221530817L294.57719494507455,353.9712487032739L292.6855853155812,353.78438250086947L292.7742065768007,346.0574750758956L288.9689854110338,352.476167806145L284.49635304574076,350.91871366892974L287.656165719849,356.89713243509414L285.9876385221214,362.0305215359349L288.85775021111294,363.52342989232466L289.77024574918414,367.8665616813805L286.94413867484036,366.1343475803865L286.81090076705095,367.84352011324063L289.4585428572882,371.50916576317286L281.1806893262301,365.7305686465925L282.5161229561181,362.80819168223434L280.824981018598,365.0778963514913L276.1518809613308,363.89617672022905L271.30092715079354,357.9553278176072L267.7847949382194,362.5904017780899L265.02591764805857,362.15522909943047L267.45108933845586,354.59381367006563L270.78814453500036,356.59964444583693L268.8085248751222,353.56629308674655L270.4996668126432,349.51707543081784L276.396354069042,353.0056427902068L277.0417625607006,356.8039545285869L278.0654924976043,355.68358723985966L277.77640354441155,353.65951584822733L272.9028357951711,350.57603314114294L274.7278260702242,346.36914080756287L273.12530619501194,344.3738815535421L272.36866250343246,348.45751811729133L270.03272330509026,349.17432052856384L268.85314152169394,352.1647922235743L267.0061485387705,352.35170455936714L268.20773303003443,352.28925789533696L267.56232453837674,353.94003371232156L265.5820936476657,354.22011027978306L265.9604158939992,349.1430827014801L268.6526738297198,346.89910910766093L268.1631163834645,341.16092188136827L264.58036561754034,342.2529315194606L266.51598066276983,344.62225114169814L263.82372192596085,346.4937165393503L263.2675459263546,342.87661019014104L255.59048504147086,349.20513081689796L248.58083455502583,346.40039185571095L254.76722199545293,355.7143669729044L254.92307384194555,360.8174980421263L250.98339230672082,364.0127355837767L246.38180064948028,373.8867122035963L246.9245303718135,377.8301992988854L245.27739465111972,376.43386153236224L244.932687697421,383.8016641179438L242.6095835455153,384.74701173244057L242.88461579169143,388.25395866722965L247.44525818736747,387.44355231832606L243.26660462194377,393.168291078764L239.58300877919828,388.3003251295954L241.39333031530987,396.2131959207122L237.8105795493866,396.53056738472606L237.00993124315937,399.3679632061876L235.89452308977525,396.8419755008622L234.3170612755157,404.56089480625815L232.80377389235673,403.41763612417935L230.35598906434552,406.2601391392882L229.11039915734546,402.2431939761391L237.93403856491113,389.1259381754189L226.66261432933425,402.15065514766957L228.37575817363359,395.2847870004334L225.39379925279718,400.048246816089L223.16848482462865,398.8111989495019L221.7340398104243,400.7530869362258L223.47713156235113,393.7489068243758L221.50240174915052,394.7731495845701L223.92390605454057,392.1829112597502L221.05501602612821,386.49135769496024L219.6554087662289,389.5321129930244L221.54212854904472,393.1211074763146L218.51616501356148,392.13614633998714L219.98972559682534,395.80658203572875L217.61894944526557,399.23716360730805L216.67100572314212,397.9761767314603L210.01767477516387,415.76785723219473L210.39599622040896,407.65018249584546L208.14501169936466,410.51630566162066L207.63650850050362,405.7043796915127L206.3010748706156,412.37381080218574L204.6704399791879,409.6204315741984L205.74489887100935,410.8304477956367L204.655160810501,404.07034502544L208.34853554551137,396.9864167880287L207.4586539461434,394.2015479443471L203.8759031802183,402.05769105104036L203.05264093528876,407.12508034912526L204.74378207171958,405.42605814864146L203.82395256472137,411.0165528855023L205.36107634825385,413.3816132113284L202.87539761176322,417.76576121930475L203.8759031802183,412.43568974521304L201.42995124362278,416.2329734348755L201.0277933980051,413.67019462769395L199.18080041508347,415.21247092211706L196.55454980187915,411.4480908462915L199.58112536928638,402.67572831053167L197.49149297115673,405.13075273514414L199.27553398464806,397.6669466801063L198.53539192342487,397.4503058787709L199.74003256886317,397.70262742369914L202.36689441290218,393.1852928713952L202.3179991504885,395.71777692263186L203.3093370575143,395.3323784386507L203.34356358098375,397.28038681679163L204.2542254265527,395.93447453846784L204.32084397990275,393.24225156630837L203.29833570357914,395.27161363330697L203.02085933515627,392.85925932141754L202.07535973528138,392.9306736869662L201.60597210547985,394.29462261770414L202.67431868895528,389.743909848366L193.69605069765566,404.58720340518994L193.12765088244578,402.15065514766957L191.81360872959158,408.29568797642014L190.7024791920494,405.73492668196513L190.31132270036687,409.4669378508688L187.40881737931795,404.62284793594154L186.8306394729334,407.06357540749923L185.89614122699368,397.82156295779896L184.71655944359736,399.02779514496433L186.46943008779,394.39407075817235L181.89045236925267,398.9967918750226L180.44378353944467,398.1617942204325L180.7554864313397,396.15116504648904L179.4646694480207,396.0891324760378L177.52599904970793,400.2839097972874L180.64425123141882,396.30581679772104L180.06546209419866,400.23380612586834L180.81354935518357,400.32467210909545L180.31054643274365,402.36671690062485L177.75152560372408,406.69283571309234L173.91146668365127,405.94026494987247L177.72891166502086,406.8162766960904L184.71961559777174,399.3161526561166L186.40770138111748,405.27161847493016L184.6499408902473,411.8185632495197L187.32019611810028,410.6146622057677L186.89725802628345,425.4159301233394L188.83287227042456,425.4468099836622L182.78033396862338,429.9117646659488L183.26989061378754,425.66253586552693L184.1157675985096,427.1407086519116L183.51497495233343,424.1836113040363L181.55674676949002,425.56990108181435L181.04457618562083,419.9311355766631L183.50519606006856,418.6910220468476L181.82383381590262,418.35862122213894L183.29250455249075,415.18196873102124L181.35627907751677,415.36710315439996L182.8249498141049,410.39844614501044L181.3782817853844,413.17650448778113L181.31166243094503,410.3674961157999L181.00057076988378,413.0836951250117L179.8656056330592,411.47903471454447L182.3133904610686,404.251971457265L176.08238637407158,414.81168325688714L176.12700302064331,412.4666301110042L174.36924252977406,419.34519092540177L174.2555624065135,417.7572918506662L169.89905508781885,425.9078639890254L169.18397188863582,423.35178228581617L167.69329764309168,424.9539958184773L175.33063252916872,412.3920354520051L168.96761299605168,416.70144462538883L172.37067631620084,411.7257348586977L169.54273554935298,412.44119942520547L165.4013646615722,418.3277083517569L166.15800835315258,416.07624380093694L162.97558174034202,418.1735692208804L163.40585380108587,414.4409539098783L161.97446494105225,419.25289188231136L156.94565657615294,419.5920224000597L159.81576906623468,420.4243218204083L157.2793621759174,423.4753370667886L155.4769858395648,422.6434192553688L153.56276227136823,429.8809066694603L151.64915073509565,431.0196099747277L150.9597368277009,428.77244805473265L151.53791553517567,431.6045262076286L148.98745193783907,433.5250022245368L151.87162113493832,433.57358790651324L151.38206368868305,435.2345817842129L148.68980575296246,436.9568137986307L146.24202092495307,434.89624925071803L149.02656750689857,437.8544951867625L152.97602713329889,435.81912724274116L155.3199115314046,445.2538476459672L149.2679844604363,445.5300831658906L146.0195505251104,449.459815873186L144.68411689522236,445.2538476459672L143.14760434252457,446.05510945738115L144.83996794062477,447.9861742819412L140.81227637501524,451.4851206321432L140.60691963745467,456.5082199382191L135.29391136495178,453.26423345238936L139.833162283594,456.8214586733234L144.44269994168462,458.27462969434737L137.4471069633464,463.83938355839337L134.35941392010045,469.86845442110825L129.8372758626483,469.4906940188548L126.0143298037674,472.16313426003626L123.29945792934359,480.17195908342865L125.03521571234614,483.07372824435015L122.2836731922007,488.1599071825972L123.63377475994184,489.33312522466986L121.56920122385327,489.39722745811105L121.20188033145405,492.7460247035169L114.33219129197823,489.9410234808747L120.38411836294745,493.3259773283903L116.95783067434877,499.9999999999991L113.66416886161824,498.65961734349L112.50720101692423,495.0944206315867L112.10687606272131,499.26918112245494L105.4431549916435,493.6228437192867ZM171.09574973240615,428.6261623047235L175.70406492882648,415.6445840960355L176.57194382032867,418.3895328383496L177.46243665053134,413.2688892947094L179.8429916943569,412.8370455523914L179.5985185866457,421.99592384673815L177.86276080364496,416.1380892881184ZM189.96783820833843,423.2595389726489L188.499166670661,419.65341114222747L190.70064549954532,410.088099093693L193.06103152800824,412.8061080276566L191.12541728386532,418.72870751156916L193.221161990341,413.51933639197387L194.56270712748665,416.1126737998261L193.50597232769087,421.1947201576104ZM197.800750939713,413.64392098742064L198.35692693931924,420.8247714568706L195.95375795679047,416.6624774081629ZM188.47716476388177,417.7111303264355L187.27558027261875,407.03261089509897L190.27587371522532,409.90451317886345ZM263.1343088196536,391.23012404043584L260.73113983712574,390.2703957963381L262.4442836814251,389.3101020725503L260.86437694382676,385.8407400153369L258.7729116542823,387.0797939231252L259.4280990382058,384.11835645030214L258.2387383625455,386.21222552076506L259.373703499371,383.17504686075426L262.088575373793,383.67098200216606L264.09080897237436,388.38114673700375L268.45220613774563,386.42923428455924L269.2760796135108,389.83662262683356L266.7170595855787,393.0564969062252L264.22465811099664,392.9327987113361L265.24838804790215,390.57997347061473ZM264.1354248178559,382.92727734318305L267.0061485387705,384.32223999882126L264.9366851560062,386.92492477279484L262.8672217732419,384.8798012595212ZM194.46002835816216,406.3029864798559L198.62401318464345,398.1307868878257L193.86229186615856,413.4850116756843L192.08191743658426,408.73122076976824ZM265.1811582637165,376.1653831206122L265.6933288475866,380.88091329117924L262.36788623581015,380.55810369526534L261.37593709795055,382.92727734318305L260.2855878066075,380.7565612273479L255.83556938001675,384.8180888646252L257.8378021775079,380.477611506215ZM297.7590103270513,375.88624003067343L300.51116407803056,379.48138876179974L298.8084103568308,382.1183457450884L296.75789352776064,382.4930209894569L295.82278405098714,379.3923647441243L295.1107570059785,381.99699721961133L294.68843014499635,379.05116540259405L290.9944441791513,380.2297416819197L293.9519554687813,376.4270437465402L294.9995218060576,379.2368894582337ZM284.3405020003365,372.93724636251227L284.9639077841275,376.3516153058922L283.20614729325916,375.51374518566354ZM282.64936006281823,372.6268388853241L281.5590107714752,374.76912023626164L278.9779880356764,373.86880787742393ZM312.9798949901178,367.37754274999725L314.37889101918154,368.43319844997495L312.07228929872144,368.85558395908356ZM310.38848133012834,367.838399256656L312.08023449848406,370.1929586051092L309.9765445922458,370.83232942182303ZM278.02087665212184,373.37213311836285L281.64824406461594,377.2204825137228L277.1976136061021,380.35367720128806L274.5939769316001,379.4541279570485L275.43985391632214,376.5378411076899L273.65947948674966,378.4926842340724L274.54997231695324,373.52732111377645L272.61374684197835,372.3475457098034L274.8836779167168,370.7947956760013L276.9531412994811,372.56501160390144L275.32861871640216,370.0184968051926L277.53131920586657,365.7305686465925L282.9830656625818,371.19869091756254ZM272.6583626874599,362.5280535412239L275.8847939149182,366.4143331849691L271.7678698572572,363.89617672022905ZM261.24269919016115,354.1268954822849L262.39966703485425,356.3371935469145L259.7740276524828,358.608708010207L256.88130202478897,371.2293980703289L257.971651316132,365.79246020005485L255.7463360868751,365.4817153729423L258.8841468542041,362.124051870685L258.6170598077906,355.4967697888278ZM304.3933939202461,372.29424367786123L303.6556967823617,367.6263242823743L302.05378813798416,371.7266604808656L296.75789352776064,362.403780704582L299.42814875561453,354.998705885218L303.36660782916897,351.9466489643087L301.7420852460891,349.95308674740863L305.76977681169774,347.2419829797009L311.35537240703707,348.42627575299366L317.4733076016091,360.3476055868123L312.86865979019603,364.8913458999691L308.6625024393925,363.27449304021184L307.75061893324437,364.9844080459957L305.01313312011825,355.9323838954865L305.2802193654434,366.7250339367438L308.062933055975,369.1384386327377ZM290.94982753258046,354.0956812317313L292.0175628852221,362.2171543305376L288.63527981127027,360.0712071292519ZM297.5811557726911,355.1543282977141L296.0458656816627,361.09771024585416L294.71043285286487,358.4843610014136Z"
          data-id="USA.20"
          data-name="Maine"
          fill="transparent"
          stroke="black"
          fill-opacity="1"
        />
		
    <text
            x="232.25186157226562"
            y="239.80845642089844"
            dominant-baseline="middle"
            text-anchor="middle"
            font-size="8px"
            font-family="sans-serif"
            fill="black"
            stroke="black"
            stroke-width="0.2px"
            stroke-linejoin="round"
          >
            <tspan x="232.25186157226562" ></tspan>
         </text>
  </svg>