<svg 
      xmlns="http://www.w3.org/2000/svg"
      xmlns:xlink="http://www.w3.org/1999/xlink"
      viewBox="0 0 500 500" 
      version="1.2" 
      stroke-linecap="round" 
      stroke-linejoin="round" 
      width="500" 
      height="500"
    >
    <path
          d="M327.41984275762115,500L199.20909527415097,495.3545283198455L209.30598869895766,442.49426025888215L205.92500881148408,340.497010891801L226.1416160848048,268.33407842861925L250.35289029784872,239.52274367564814L223.06218187711693,223.5536633873512L205.13039488547383,223.70524987286444L186.9166218905102,251.33994158184532L174.99945116767412,249.07262353109718L174.9864113833637,229.2002827462652L162.68049068877372,230.31613397409592L168.39193117122795,205.38200300894414L150.04857485234606,195.70832672528832L151.626393026625,187.41104239728793L43.749203348613264,155.05751598989036L29.237109138951382,139.4856395248985L77.39845328399588,23.49065578646787L137.0499144145897,0L232.53001117118947,55.428016284896785L325.4581649312886,112.23763528192967L340.8048080072822,145.5251897180451L363.5996317774552,139.96248770642342L372.9194338536172,176.6886402125415L393.41110024557474,173.1213209976013L400.6490137501323,181.2819428946168L392.29049064361607,194.93338013225912L449.2667514142131,231.39227331135953L470.7628908610477,362.56566868211667L449.48190838942264,434.1040999403517L417.6097416668399,458.32172798503825L401.16286425274575,497.09358060093473Z"
          data-id="USA.23"
          data-name="Michigan"
          fill="transparent"
          stroke="black"
          fill-opacity="1"
        />
		
    <text
            x="338.08099365234375"
            y="319.1712341308594"
            dominant-baseline="middle"
            text-anchor="middle"
            font-size="8px"
            font-family="sans-serif"
            fill="black"
            stroke="black"
            stroke-width="0.2px"
            stroke-linejoin="round"
          >
            <tspan x="338.08099365234375" ></tspan>
         </text>
  </svg>