<svg 
      xmlns="http://www.w3.org/2000/svg"
      xmlns:xlink="http://www.w3.org/1999/xlink"
      viewBox="0 0 500 500" 
      version="1.2" 
      stroke-linecap="round" 
      stroke-linejoin="round" 
      width="500" 
      height="500"
    >
    <path
          d="M464.28455021934496,313.36448924954175L465.70186982909127,312.8682303466944L459.9502060729401,317.89242499272405L462.8178900797566,315.22584980588226L461.48295697382946,313.09577031065237L460.62559443934606,314.8950305183412L460.03259257675927,309.5159889004053L462.6363680273107,304.442762778674L464.41627843966126,306.07898093464246L462.3729121800052,313.61274375902303L467.1196415544682,310.7165125895667ZM499.9999999999991,249.29721018441023L494.42895287837655,260.14067643023964L492.96229273878816,262.06143440041933L492.2371105402526,262.08236129672196L490.70435963936325,260.6000677552347L493.04467924260734,261.4978055498782L494.24788412821727,259.99442079641403L492.0392921519624,259.53497920797236L492.1049296109777,257.9266343529089L494.3796117552065,257.50891101659727L497.511203724961,253.1407146686497L496.4066816790182,251.90704060889402ZM492.8962019774872,257.63428871456017L491.8908154801684,257.9266343529089L492.05558848780856,258.8457456863025L490.70435963936325,259.1173765227886L489.9954731833468,256.067291243412L496.1758185034032,252.80619127156206ZM473.13521386688535,293.65972104074854L475.31076046248927,291.66657845441705L471.6187587085142,298.82558374578684ZM437.9969217286007,287.71554100583353L439.1009916589137,290.1667621392603L436.78828492881985,289.76314961273056ZM463.16373183755513,359.4871847590798L461.31275205201655,359.20993786236113L458.72798919106117,346.8102048820815L455.79693127002065,353.24699338289565L456.33063241235504,359.52212199724L454.59553662691724,359.5097248895572L451.88357263522903,356.1173259703869L452.51369366576455,354.4343282429659L450.75370066760024,348.17165872193846L452.4326652888203,354.5947826430174L451.69299759027217,356.2038729920587L453.24476048743054,359.49084814567186L306.473224401685,360.13066169837384L201.56987054350066,360.0407932996677L118.60938872361112,356.66675099795975L120.28925816942046,354.93090494720445L0,355.7660495680502L8.617084218176387,351.06148034008766L31.884478243011472,345.2142746640052L35.88927637413508,337.14359659319143L47.5370061776066,333.9498039795981L48.030872491569426,327.8018898905357L56.66470516122172,322.6183578050732L56.61853240743312,317.2529369585045L78.97016918877671,305.97971768640946L101.30913071261239,286.16613949958537L103.63179585313628,287.8941695955723L99.65189493473918,291.0851230455328L103.18455500192067,293.58731725813914L103.74768044656594,299.3666540712402L118.62749530196379,311.13169070178174L125.48187086155303,310.7403837015854L137.27128729576998,301.16690161684164L145.20257143482468,308.7689422646604L164.72771716459738,302.60486204835115L167.58046296244265,300.19296624987237L165.68014146040605,297.5524398487614L167.15902414854372,294.14998627209525L172.29505237417197,298.4411076501756L185.40672665680995,290.9693378575171L188.21601595461652,290.5212901127211L189.99321011321717,294.4047924784927L199.84382775057475,288.57267800013597L201.29962465514564,286.37336002338225L198.2314065996161,286.19154312782257L198.69675462251143,283.956164738785L204.8952065209205,279.35354526278934L199.7967501721987,274.7534102505597L208.25856708420451,260.8131181555673L218.08338268424632,251.62988573318444L222.9138566894053,237.55882691817806L230.60567677596373,231.16610066167686L229.45679281206594,228.0880926031773L234.21076493653618,224.13120634288998L238.9153953445084,206.77867642373485L245.55927785162748,209.70633589287627L249.2114435905778,216.87742777562835L260.84876227466157,219.52032330436396L277.514825467827,187.13107597056523L285.32343497240436,193.66466226073317L290.34629485835376,183.82890361385807L293.835046309865,180.77815091266393L294.32212258278014,182.87674663313692L299.56860289433826,176.89910472040765L301.0619710824876,178.2048499194848L302.78801328208374,173.0697198530156L312.7341453897279,162.8285653379503L310.8786385146059,160.2963372072618L316.57417051321227,148.82476255845495L316.0956951171793,139.86933830162616L346.7928115081404,165.35026608237376L353.3321265524628,150.71581709776683L362.5417593309394,152.1683328400768L368.95885244974124,158.14218700179617L365.32615141601855,166.151767430973L369.14806936782315,170.04408010472252L381.0764567723645,173.31039247161834L381.5155494556575,176.6181174459598L387.30297425288154,178.39086004001138L394.14693809975597,186.7994670312205L393.292743934654,197.36436167960164L384.8282107688974,199.7957959574651L388.25811420911396,203.3768756299819L384.00842011132136,204.71479192675952L385.2989907059655,202.2168697673119L380.7410261339519,199.71113175738083L382.73142900544553,202.6220163955495L379.70259425598306,205.4722585612035L381.4136982466098,206.62520084097287L379.2576163562326,206.82182255312182L379.63378783426015,210.82800106931154L377.5569240783216,209.36423445163246L379.250826315184,211.6254116135483L377.5623559924934,221.44779626974787L373.785704783234,218.1753398571127L378.9937077999675,224.79939982441238L374.2967728509584,224.92552468298982L381.9722966016707,226.43562588364557L393.5539362371692,221.21906528813815L395.16183089187234,226.35454754417287L392.491965273347,225.87122638176152L391.7337376941614,229.94623525229918L394.2605585550655,227.963194397003L395.9531032583818,230.24005372909642L394.3049204730205,231.31081753715398L397.15268706565166,230.71116962113956L398.56910066415367,233.14625547767628L395.7883302507407,236.07396192162878L409.33592884729023,238.8207622350592L412.4752162760078,241.60244661699107L412.7422932016543,243.34326992035267L410.7469105316204,243.72151220291198L413.8024539229709,246.46679967607133L411.85143317089023,244.32491953508998L413.65397665784803,243.05360237594186L413.0727446348528,241.13888201855207L414.56068090882763,241.75465720762804L413.4561588628858,240.47641522445156L412.5250101081365,241.0977320871334L413.7408902512525,239.37865061598177L416.9172968479188,244.3522412916068L417.2300938183953,240.20098699552727L419.0362595703482,240.2202706720127L420.32049283290326,245.48438130919976L424.4597348447678,247.9813418757999L422.16739883114406,246.77554862300985L420.5925489637639,250.92386690983267L423.2035671643207,249.72647357133383L421.58163971856357,251.5724424820728L423.1474360001048,250.73571386512958L423.5100268027081,253.1197531662965L423.54261947439954,249.45955306401538L427.8796798745552,251.09477841115176L425.09755133426734,251.83667618849677L427.9267574529322,252.93167567444652L426.4107555968476,256.23431312310595L429.0625146370212,252.41335115261973L430.4318500638183,255.33572012495097L432.3932825286129,254.66691880747976L431.96460096470764,257.3835297247251L433.1184647271475,254.77140647612532L440.2109456190301,258.7049059861356L436.2260649020909,258.1148300250388L438.34321678868673,261.1637872234346L441.26024191867145,259.80657622147464L439.60526909226337,265.1844338178071L438.55959446428824,262.2059160730887L438.55235171428103,264.8159666537622L435.9368070174678,265.0248441564945L438.441899628353,267.7575721907888L436.18396652892807,269.0710372514791L437.1400119030777,271.7182118759579L434.89837513949806,270.32178971314397L437.40346775038324,274.7388232556791L433.579738369418,275.301394671239L435.60726100218744,277.9453189119472L433.9590788101541,278.94457615920464L438.7089765539986,280.33940664709144L433.909737093657,280.7757014104932L430.03304551118254,276.19561458053204L428.4256035654371,277.74893323427705L427.5478703144827,273.6558492461668L425.0930242446839,278.26175077452035L421.1036170314892,267.9660521782894L417.7085692144292,267.2569592663267L419.833416559989,265.665752704258L416.7231001312957,266.7611704945666L416.2582048173581,263.16788288270754L412.2823776862597,263.74481137431985L405.33701533929707,255.87673050641297L405.46285834315586,252.6482541592386L402.169209619512,252.21462333668296L400.28608927791083,245.66696334379776L396.69548721067895,242.7633441981743L393.4941834012843,243.0228227016405L392.82920674759225,239.24422159934738L383.9830701896353,237.31579302828595L389.1630076242609,241.3408871344236L392.45891989269603,240.1238538773555L393.97175337940007,244.6754871950793L396.05631259430356,243.29350706397963L400.1901226919945,245.9133664648234L400.2711510689405,252.70166643370612L408.2300486744716,259.28631459625467L412.44896152973433,267.3319967623979L419.78045376515183,272.41357261723897L420.97913215450626,276.10039461877795L417.9389796810847,275.1970075687186L421.28513908393415,277.1914694920174L420.37843483295455,279.9225082324451L429.66638032795345,280.509700071339L429.2856823536704,282.6961930584157L437.6433845118372,284.3621966258979L435.70911221123424,287.0474874869815L431.35439794168633,285.83245837931963L430.33316781748,287.9900439646385L422.8242273169135,283.8873478432979L427.5148255271597,287.96950007645L430.3259250674728,288.4474249133327L431.35439794168633,286.8362960968193L433.87488147050044,287.2435457974166L440.4055950446118,293.72813216683153L440.01312782406603,299.28976824118035L436.6782855518486,298.4525000743056L439.1951474089965,299.75647676853623L438.92309127813587,303.13560737400167L435.40355799076497,299.31454273748886L434.3710107359275,292.76687133646874L434.5688291242177,298.7011304688863L429.074283883283,292.27562975740784L428.1245758412233,295.1745582562535L431.1325883519112,298.68062514839266L426.04816479424335,295.38230029004626L427.9987328373654,297.40545374233534L426.52573477236,298.9087409313497L431.4702819417871,301.10626695178144L427.8226426990941,302.4511781524143L426.65791510830786,300.7330500358157L426.50943843651385,303.0337310485893L429.3608261074842,302.7850078087763L427.3500525195195,305.12638008879776L431.7618033712024,302.86782203715984L433.0718392644012,305.2233825482672L427.87741632976395,307.63226357233407L425.355574674074,307.9012438074378L408.52654930910103,285.8886921151693L407.5560184349397,288.42659699401975L417.7579109309254,304.1113081059252L427.4487347658578,310.9646001847009L430.4155543213001,309.59898778628394L428.77008778968866,310.8838943061951L431.99945718119125,311.3823171671438L432.0143953901634,313.2610937978693L428.55325740512944,312.9508960410253L431.23308143408394,313.3931779766435L428.8990991629289,316.15630006509446L431.6332447069217,314.2424217990001L433.876692306334,316.15630006509446L434.58422004214754,313.55764016208104L437.9344532322948,316.8189066185073L432.79163496561796,318.10131464653523L435.3877143638774,319.43989669967186L433.8210132577469,322.415875020723L439.0516499424166,318.9878737644508L437.3926033287107,326.00702793717574L437.8158529784432,323.55269204516026L435.073559266526,324.6626330150716L436.11787636095414,322.3341985861416L429.83884879455854,328.77360911927144L424.38323296407816,319.4424502304955L421.5648906737597,316.8796554811397L421.9179757748916,320.4130562710311L418.0874563528778,316.83849375935597L419.9443213548766,312.82220994266936L416.698655627526,309.76782443228376L410.39065706110523,310.20353594390826L410.65773398675174,312.0790122087851L406.7036351056722,308.136376948557L399.54370591894076,308.5824495863185L396.59589895309546,303.61394616056623L395.11248917537523,302.9509192701098L391.68439657099225,305.9342097321037L391.7174419516423,301.8318474206776L379.9827985547672,303.15808815916034L384.6964831419082,305.0020658549047L390.48119168538324,303.2824425124836L391.0416008762768,305.9342097321037L392.2448057618858,306.84543858369534L395.8213756313926,303.7590621673021L396.90914863253056,308.00502185909363L394.61817074578266,311.13027014342606L397.172604479837,308.2947384820959L401.9686749774701,311.39936680400206L407.65470127460594,310.7992099193657L407.29210987867555,313.09577031065237L411.5123808608114,315.30564112255297L414.8078404202888,311.6701547957887L415.9743788469086,322.7062686465333L426.5261874813177,329.4789220306957L423.62500597822054,334.4227052224801L426.1798924212335,332.0320412695337L426.7049932800128,333.86404950931774L421.98451865182415,338.2992331130672L422.0003622787126,341.943065700837L425.9707574956383,335.0993011708033L434.2555794447835,331.8256479911979L435.13874460991065,336.59143236119235L431.4870309865919,340.3751676504771L436.6823593391464,336.75069390785166L437.02458061193374,345.95087018490267L440.5513560559839,346.71193754457727L437.7452357208849,345.5001119200592L437.92268339270413,338.41150306718646L443.7490381937123,338.91344029431684L435.7389886291767,335.53560807467966L436.840342305738,333.35600414364126L439.120909073099,335.51721676155967L439.99320981655273,334.2333798718346L438.18342357958863,334.12951727656855L438.441899628353,332.8770692196249L436.05993436090284,333.49271399235886L435.72676667395535,329.1410056582431L449.6645695395864,332.98321949335104L447.5890633171957,336.9569070353991L449.6890140433561,334.20621163245596L451.4607762877831,338.2426728798473L449.9954736817417,333.0420969345914L455.27635690749776,331.6959763011687ZM461.6970711046388,304.35997179876813L464.0373907078838,298.65983530768654L463.36155022584535,301.10626695178144L465.2899373099899,301.14782840528414ZM476.3817844188234,253.62107242898037L492.30274799926883,250.10801299877176L488.80901734254167,254.18607774910015L490.30872345610805,257.7596635709838L487.14408610570445,260.1616113380983L489.5011547537533,260.78788465814614L478.60712543988393,273.3849295317568L478.7881941900432,279.96422831779637L476.7443758147547,278.46583520117883L478.0299672041838,276.571332572516L475.3601015856584,279.0900479763977L477.61803468508424,283.79140219656983L473.4810556246839,282.1692161387291L477.0082843710188,284.1032191379636L473.8436470206152,284.7270866202998L475.0138065255742,286.74325542216684L479.2992622577676,283.45872134254523L475.65660222028873,289.942853765936L471.520076462175,285.122213797747L470.0203703486077,288.46796779093074L472.7889188068002,288.65513142038117L474.10755557688026,292.14418785532234L469.7564623856706,289.1327133954205L467.06984772234046,290.1299679758599L465.9657783853554,294.2614295986009L467.8117789656799,296.19125028634016L463.5593680208094,296.9795725688691L460.95559316358595,301.35506392617026L457.7579104325305,320.04140311642186L454.5633972575106,310.72759553864626L456.1264772853019,306.8039185737048L455.0826128998315,308.8169863557432L453.82327685000564,306.65745958913385L456.95034173017484,302.5365585317004L454.10936577192024,304.0797257662025L454.3488298244165,302.18222157176797L456.0440907814818,297.7264818098265L458.6646146835101,297.560415589734L456.8349104390318,296.0046233911348L459.50522876651485,295.2782875552912L459.1095925832615,293.47272421721163L456.5221134685562,296.2120492955728L457.4283644172501,291.7495565634272L461.6970711046388,290.25461209379773L460.0819342932573,290.067502058896L461.7301164852897,287.1174070380807L457.5600926375664,290.81533491305163L459.19197908708156,285.43395634241915L465.5208004856049,283.89534311457464L458.8624330718012,284.06181596616125L462.1913901275602,283.31307757794366L459.752388277976,281.75331205887323L460.95559316358595,279.4647136059625L462.99895882991495,281.6284778685017L465.1414606381968,278.90284843336394L462.32357105683514,279.96422831779637L463.21352626300995,276.300841202979L467.2676655173036,276.46725487869844L464.0867324243809,275.61368735705264L465.0264814626844,272.9474825443408L469.80580350883974,273.15290655028093L465.32298269064177,271.9056526565455L467.9104612120191,269.6965916671202L469.74016604982444,270.9887040969329L466.1966415609704,267.2987745232849L469.0149838512898,266.1931495533195L470.54773475217917,270.00919948968976L470.6133722111954,267.44455147900226L473.0197819824143,267.54879833275027L472.6241457991591,263.0841904719441L473.8766918079382,264.4824352506812L476.0028972803739,262.0198666931319L473.2506451580284,259.55591565478926L475.8213752279289,258.63692227698994L469.7071206691744,258.9085633633431L472.3276451645306,256.10890368400305L476.5796028071145,256.2552620645315Z"
          data-id="USA.47"
          data-name="Virginia"
          fill="transparent"
          stroke="black"
          fill-opacity="1"
        />
		
    <text
            x="283.44305419921875"
            y="287.7182922363281"
            dominant-baseline="middle"
            text-anchor="middle"
            font-size="8px"
            font-family="sans-serif"
            fill="black"
            stroke="black"
            stroke-width="0.2px"
            stroke-linejoin="round"
          >
            <tspan x="283.44305419921875" ></tspan>
         </text>
  </svg>